<svg width="32" height="32" viewBox="0 0 32 32" fill="none" xmlns="http://www.w3.org/2000/svg">
<path fill-rule="evenodd" clip-rule="evenodd" d="M2.66669 5.15147C2.66669 4.32433 2.66669 3.91076 2.84092 3.65566C2.99315 3.43277 3.22903 3.28088 3.49494 3.23453C3.79927 3.18147 4.17577 3.35261 4.92877 3.69488L25.591 13.0868C27.6271 14.0123 28.6451 14.475 28.961 15.1163C29.2354 15.6735 29.2354 16.3265 28.961 16.8837C28.6451 17.5249 27.6271 17.9877 25.591 18.9132L4.92877 28.3051C4.17577 28.6474 3.79927 28.8185 3.49494 28.7655C3.22903 28.7191 2.99315 28.5672 2.84092 28.3443C2.66669 28.0892 2.66669 27.6757 2.66669 26.8485V22.6017C2.66669 21.2 2.66669 20.4992 2.91775 19.9247C3.13914 19.4181 3.4962 18.9826 3.94952 18.6661C4.46359 18.3073 5.15084 18.1698 6.52533 17.8949L16 16L6.52533 14.1051C5.15084 13.8302 4.46359 13.6927 3.94952 13.3339C3.4962 13.0174 3.13914 12.5819 2.91775 12.0753C2.66669 11.5008 2.66669 10.8 2.66669 9.39827V5.15147Z" fill="#FFC633"/>
</svg>
