<svg width="32" height="32" viewBox="0 0 32 32" fill="none" xmlns="http://www.w3.org/2000/svg">
<path fill-rule="evenodd" clip-rule="evenodd" d="M9.33335 28C9.33335 28.7364 8.7364 29.3333 8.00002 29.3333C7.26364 29.3333 6.66669 28.7364 6.66669 28V17.3333C6.66669 16.5969 7.26364 16 8.00002 16C8.7364 16 9.33335 16.5969 9.33335 17.3333V28ZM17.3334 28C17.3334 28.7364 16.7364 29.3333 16 29.3333C15.2636 29.3333 14.6667 28.7364 14.6667 28V3.99999C14.6667 3.26361 15.2636 2.66666 16 2.66666C16.7364 2.66666 17.3334 3.26361 17.3334 3.99999V28ZM25.3334 28C25.3334 28.7364 24.7364 29.3333 24 29.3333C23.2636 29.3333 22.6667 28.7364 22.6667 28V12C22.6667 11.2636 23.2636 10.6667 24 10.6667C24.7364 10.6667 25.3334 11.2636 25.3334 12V28Z" fill="#6D5FFE"/>
</svg>
