<svg width="32" height="32" viewBox="0 0 32 32" fill="none" xmlns="http://www.w3.org/2000/svg">
<path fill-rule="evenodd" clip-rule="evenodd" d="M22.6375 19.9288C22.1668 19.6529 21.5883 19.6587 21.1199 19.937L18.7477 21.3503C18.2167 21.6668 17.5535 21.6297 17.0666 21.2494C16.2248 20.592 14.8695 19.4859 13.6904 18.3068C12.5113 17.1277 11.4052 15.7723 10.7478 14.9306C10.3675 14.4437 10.3304 13.7805 10.6469 13.2495L12.0602 10.8773C12.3397 10.4089 12.342 9.82572 12.066 9.355L8.58549 3.40954C8.2481 2.83447 7.57796 2.55157 6.92985 2.71041C6.30029 2.86345 5.4829 3.23679 4.6261 4.09475C1.94322 6.77763 0.518308 11.3028 10.6075 21.392C20.6967 31.4812 25.2207 30.0575 27.9048 27.3734C28.7639 26.5143 29.136 25.6957 29.2902 25.065C29.4468 24.4181 29.1685 23.7526 28.5946 23.4163C27.1616 22.5781 24.0706 20.7682 22.6375 19.9288Z" fill="#38D79F"/>
</svg>
